<?xml version="1.0" encoding="UTF-8" standalone="no"?><!DOCTYPE svg PUBLIC "-//W3C//DTD SVG 1.1//EN" "http://www.w3.org/Graphics/SVG/1.1/DTD/svg11.dtd"><svg width="100%" height="100%" viewBox="0 0 400 341" version="1.1" xmlns="http://www.w3.org/2000/svg" xmlns:xlink="http://www.w3.org/1999/xlink" xml:space="preserve" style="fill-rule:evenodd;clip-rule:evenodd;stroke-linejoin:round;stroke-miterlimit:2;"><defs><linearGradient id="clubGrad" x1="0%" y1="0%" x2="100%" y2="100%"><stop offset="0%" style="stop-color:#00D4AA"/><stop offset="100%" style="stop-color:#528bf2"/></linearGradient></defs><g><path d="M272.346,278.254c-13.828,9.501 -38.612,28.894 -92.649,32.849c-1.916,0.14 -54.524,1.181 -62.491,-0.281c-22.891,-4.201 -29.314,-17.175 -25.86,-43.758c3.375,-25.979 16.446,-46.738 18.737,-50.377c20.511,-32.576 30.755,-37.858 57.603,-54.928c15.24,-9.689 54.442,-22.975 86.951,-23.894c40.672,-1.15 40.626,-1.113 81.296,-1.042c6.997,0.012 10.4,-1.57 9.67,5.396c-0.24,2.293 -0.632,2.194 -7.307,27.871c-3.648,14.035 -14.943,44.231 -27.899,65.524c-2.377,3.906 -14.096,23.166 -38.051,42.639Z" fill="url(#clubGrad)"/><path d="M192.522,133.689c-1.532,-1.542 -1.928,-3.984 -3.46,-5.526c-1.582,-1.593 -8.203,2.674 -8.82,2.981c-1.271,0.632 -2.114,-1.123 -3.438,-0.614c-0.984,0.379 -2.14,-0.225 -3.164,0.028c-1.216,0.301 -2.19,1.277 -3.401,1.597c-5.911,1.566 -43.512,0.242 -72.097,2.455c-2.739,0.212 -20.997,1.626 -34.022,4.657c-3.019,0.703 -8.909,3.396 -9.054,3.496c-0.488,0.337 -0.706,0.98 -1.189,1.324c-0.712,0.507 -1.69,0.6 -2.339,1.186c-0.535,0.484 -0.481,1.458 -1.061,1.886c-1.306,0.963 -3.283,0.929 -4.378,2.126c-0.811,0.886 0.414,3.566 -0.787,3.518c-2.721,-0.108 -4.695,-0.322 -7.721,-0.53c-1.461,-2.896 -7.478,-9.974 -5.841,-25.842c0.165,-1.598 0.673,-6.524 6.778,-18.905c4.454,-9.034 17.443,-23.131 17.547,-23.231c2.324,-2.221 24.846,-19.433 32.841,-23.618c24.504,-12.825 38.753,-16.923 75.347,-23.644c11.47,-2.107 11.519,-1.412 49.772,-4.528c4.243,-0.346 4.224,-0.131 53.172,-2.198c9.028,-0.381 8.743,3.173 6.663,11.975c-0.725,3.07 -5.917,25.043 -13.52,37.04c-6.785,10.706 -12.253,19.485 -27.206,32.024c-11.958,10.027 -37.215,20.875 -40.623,22.338Z" fill="url(#clubGrad)" fill-opacity="1"/><path d="M353.596,113.694c-0.812,1.363 -0.923,5.944 -8.288,6.559c-12.068,1.007 -73.009,0.884 -78.14,0.841c-17.199,-0.144 -17.636,0.556 -18.606,-0.884c-1.982,-2.944 2.797,-5.626 3.267,-5.89c6.205,-3.482 16.104,-16.81 17.659,-19.476c10.401,-17.841 12.976,-25.158 13.792,-27.478c9.753,-27.714 5.223,-33.831 14.772,-36.067c6.966,-1.631 33.483,-3.579 43.682,-0.17c0.13,0.044 20.454,5.712 21.61,29.851c0.283,5.912 1.338,14.005 -9.747,52.715Z" fill="url(#clubGrad)" fill-opacity="0.99"/><path d="M192.522,133.689c-19.637,7.511 -19.275,8.167 -38.008,17.558c-14.825,7.431 -41.264,29.855 -49.965,43.969c-2.998,4.863 -3.182,4.722 -5.626,9.891c-1.143,2.418 -2.179,2.39 -3.602,2.113c-1.423,-0.277 -2.974,-2.362 -5.571,-6.122c-11.827,-17.12 -49.25,-38.202 -52.158,-48.821c3.025,-2.917 13.861,-9.172 14.349,-9.51c0.145,-0.101 9.16,-2.794 12.179,-3.496c13.025,-3.031 31.283,-4.445 34.022,-4.657c28.585,-2.213 77.705,-5.96 82.101,-6.592c0.683,-0.098 7.238,-1.449 8.82,0.144c1.532,1.542 1.928,3.984 3.46,5.526Z" fill="url(#clubGrad)" fill-opacity="0.99"/></g></svg>
